REM DIRINDEX 1\2,1\3,1\4,1\5,1\6
REM DIRNAME cjc030,folder01,folder02,folder03,folder04,folder05
TITLE ""
FILE "Disc2Track33.mp3" MP3
  TRACK 01 AUDIO
    TITLE "3:cjc030_03015"
    INDEX 01 00:00:00
  TRACK 02 AUDIO
    TITLE "0:"
    INDEX 01 00:01:26
  TRACK 03 AUDIO
    TITLE "4:cjc030_03016"
    INDEX 01 00:01:36
  TRACK 04 AUDIO
    TITLE "0:"
    INDEX 01 00:03:35
  TRACK 05 AUDIO
    TITLE "5:cjc030_03017"
    INDEX 01 00:03:43
  TRACK 06 AUDIO
    TITLE "0:"
    INDEX 01 00:04:72
  TRACK 07 AUDIO
    TITLE "6:cjc030_03018"
    INDEX 01 00:05:10
  TRACK 08 AUDIO
    TITLE "0:"
    INDEX 01 00:08:40
  TRACK 09 AUDIO
    TITLE "3:cjc030_03019"
    INDEX 01 00:09:12
  TRACK 10 AUDIO
    TITLE "0:"
    INDEX 01 00:11:07
  TRACK 11 AUDIO
    TITLE "4:cjc030_03020"
    INDEX 01 00:11:15
  TRACK 12 AUDIO
    TITLE "0:"
    INDEX 01 00:14:17
  TRACK 13 AUDIO
    TITLE "5:cjc030_03021"
    INDEX 01 00:14:25
  TRACK 14 AUDIO
    TITLE "0:"
    INDEX 01 00:16:20
  TRACK 15 AUDIO
    TITLE "6:cjc030_03022"
    INDEX 01 00:16:32
  TRACK 16 AUDIO
    TITLE "0:"
    INDEX 01 00:20:49
  TRACK 17 AUDIO
    TITLE "3:cjc030_03023"
    INDEX 01 00:21:23
  TRACK 18 AUDIO
    TITLE "0:"
    INDEX 01 00:22:56
  TRACK 19 AUDIO
    TITLE "4:cjc030_03024"
    INDEX 01 00:22:64
  TRACK 20 AUDIO
    TITLE "0:"
    INDEX 01 00:24:61
  TRACK 21 AUDIO
    TITLE "5:cjc030_03025"
    INDEX 01 00:24:69
  TRACK 22 AUDIO
    TITLE "0:"
    INDEX 01 00:26:28
  TRACK 23 AUDIO
    TITLE "3:cjc030_03026"
    INDEX 01 00:27:06
  TRACK 24 AUDIO
    TITLE "0:"
    INDEX 01 00:28:41
  TRACK 25 AUDIO
    TITLE "4:cjc030_03027"
    INDEX 01 00:28:47
  TRACK 26 AUDIO
    TITLE "0:"
    INDEX 01 00:30:69
  TRACK 27 AUDIO
    TITLE "5:cjc030_03028"
    INDEX 01 00:31:02
  TRACK 28 AUDIO
    TITLE "0:"
    INDEX 01 00:32:33
  TRACK 29 AUDIO
    TITLE "6:cjc030_03029"
    INDEX 01 00:32:48
  TRACK 30 AUDIO
    TITLE "0:"
    INDEX 01 00:36:11
  TRACK 31 AUDIO
    TITLE "3:cjc030_03030"
    INDEX 01 00:36:58
  TRACK 32 AUDIO
    TITLE "0:"
    INDEX 01 00:38:06
  TRACK 33 AUDIO
    TITLE "4:cjc030_03031"
    INDEX 01 00:38:14
  TRACK 34 AUDIO
    TITLE "0:"
    INDEX 01 00:40:56
  TRACK 35 AUDIO
    TITLE "5:cjc030_03032"
    INDEX 01 00:40:64
  TRACK 36 AUDIO
    TITLE "0:"
    INDEX 01 00:42:12
  TRACK 37 AUDIO
    TITLE "6:cjc030_03033"
    INDEX 01 00:42:27
  TRACK 38 AUDIO
    TITLE "0:"
    INDEX 01 00:45:10
  TRACK 39 AUDIO
    TITLE "3:cjc030_03034"
    INDEX 01 00:45:61
  TRACK 40 AUDIO
    TITLE "0:"
    INDEX 01 00:47:11
  TRACK 41 AUDIO
    TITLE "4:cjc030_03035"
    INDEX 01 00:47:19
  TRACK 42 AUDIO
    TITLE "0:"
    INDEX 01 00:48:16
  TRACK 43 AUDIO
    TITLE "5:cjc030_03036"
    INDEX 01 00:48:24
  TRACK 44 AUDIO
    TITLE "0:"
    INDEX 01 00:49:49
  TRACK 45 AUDIO
    TITLE "3:cjc030_03037"
    INDEX 01 00:50:29
  TRACK 46 AUDIO
    TITLE "0:"
    INDEX 01 00:51:52
  TRACK 47 AUDIO
    TITLE "4:cjc030_03038"
    INDEX 01 00:51:60
  TRACK 48 AUDIO
    TITLE "0:"
    INDEX 01 00:53:13
  TRACK 49 AUDIO
    TITLE "5:cjc030_03039"
    INDEX 01 00:53:21
  TRACK 50 AUDIO
    TITLE "0:"
    INDEX 01 00:54:44
  TRACK 51 AUDIO
    TITLE "6:cjc030_03040"
    INDEX 01 00:54:56
  TRACK 52 AUDIO
    TITLE "0:"
    INDEX 01 00:59:14
  TRACK 53 AUDIO
    TITLE "3:cjc030_03041"
    INDEX 01 00:59:63
  TRACK 54 AUDIO
    TITLE "0:"
    INDEX 01 01:01:11
  TRACK 55 AUDIO
    TITLE "4:cjc030_03042"
    INDEX 01 01:01:19
  TRACK 56 AUDIO
    TITLE "0:"
    INDEX 01 01:04:37
  TRACK 57 AUDIO
    TITLE "5:cjc030_03043"
    INDEX 01 01:04:43
  TRACK 58 AUDIO
    TITLE "0:"
    INDEX 01 01:05:68
  TRACK 59 AUDIO
    TITLE "6:cjc030_03044"
    INDEX 01 01:06:04
  TRACK 60 AUDIO
    TITLE "0:"
    INDEX 01 01:10:69
  TRACK 61 AUDIO
    TITLE "3:cjc030_03045"
    INDEX 01 01:11:45
  TRACK 62 AUDIO
    TITLE "0:"
    INDEX 01 01:12:71
  TRACK 63 AUDIO
    TITLE "4:cjc030_03046"
    INDEX 01 01:13:08
  TRACK 64 AUDIO
    TITLE "0:"
    INDEX 01 01:16:28
  TRACK 65 AUDIO
    TITLE "5:cjc030_03047"
    INDEX 01 01:16:36
  TRACK 66 AUDIO
    TITLE "0:"
    INDEX 01 01:17:65
  TRACK 67 AUDIO
    TITLE "6:cjc030_03048"
    INDEX 01 01:18:04
  TRACK 68 AUDIO
    TITLE "0:"
    INDEX 01 01:22:74
  TRACK 69 AUDIO
    TITLE "3:cjc030_03049"
    INDEX 01 01:23:48
  TRACK 70 AUDIO
    TITLE "0:"
    INDEX 01 01:24:59
  TRACK 71 AUDIO
    TITLE "4:cjc030_03050"
    INDEX 01 01:24:67
  TRACK 72 AUDIO
    TITLE "0:"
    INDEX 01 01:25:72
  TRACK 73 AUDIO
    TITLE "5:cjc030_03051"
    INDEX 01 01:26:05
  TRACK 74 AUDIO
    TITLE "0:"
    INDEX 01 01:27:20
  TRACK 75 AUDIO
    TITLE "6:cjc030_03052"
    INDEX 01 01:27:32
  TRACK 76 AUDIO
    TITLE "0:"
    INDEX 01 01:31:00
  TRACK 77 AUDIO
    TITLE "3:cjc030_03053"
    INDEX 01 01:31:47
  TRACK 78 AUDIO
    TITLE "0:"
    INDEX 01 01:32:68
  TRACK 79 AUDIO
    TITLE "4:cjc030_03054"
    INDEX 01 01:33:03
  TRACK 80 AUDIO
    TITLE "0:"
    INDEX 01 01:34:01
  TRACK 81 AUDIO
    TITLE "5:cjc030_03055"
    INDEX 01 01:34:10
  TRACK 82 AUDIO
    TITLE "0:"
    INDEX 01 01:35:33
